
        <svg xmlns="http://www.w3.org/2000/svg" xmlns:xlink="http://www.w3.org/1999/xlink" version="1.1" width="3181.8181818181824" height="1281.8181818181818" viewBox="0 0 3181.8181818181824 1281.8181818181818">
			
			<g transform="scale(9.090909090909092) translate(10, 10)">
				<defs id="SvgjsDefs4958"/><g id="SvgjsG4959" featureKey="symbolGroupContainer" transform="matrix(1,0,0,1,0,0)" fill="#000"><rect xmlns="http://www.w3.org/2000/svg" width="110" height="121" rx="10" ry="10"/></g><g id="SvgjsG4960" featureKey="ghXSps-0" transform="matrix(2.6923076923076925,0,0,2.6923076923076925,11.923076923076923,17.30670635516827)" fill="#ffffff"><g xmlns="http://www.w3.org/2000/svg" transform="matrix(1,0,0,1,-336,-336)"><g><g transform="matrix(0.718213,0,0,0.718213,237.056,164.095)"><path d="M156.015,257.985L159.015,260.985C159.315,261.285 159.736,261.431 160.158,261.383C160.579,261.335 160.956,261.098 161.181,260.738L166.181,252.738C166.588,252.086 166.39,251.227 165.738,250.819C165.086,250.412 164.227,250.61 163.819,251.262L159.747,257.778C159.747,257.778 157.985,256.015 157.985,256.015C157.441,255.472 156.559,255.472 156.015,256.015C155.472,256.559 155.472,257.441 156.015,257.985Z"/></g><path d="M351,361.004C350.49,361.051 350.01,361.274 349.644,361.639C349.279,362.005 349.056,362.485 349.009,362.995L344.991,362.995C344.944,362.485 344.721,362.005 344.356,361.639C343.943,361.227 343.383,360.995 342.8,360.995L341.2,360.995C340.617,360.995 340.057,361.227 339.644,361.639C339.232,362.052 339,362.612 339,363.195L339,364.795C339,365.379 339.232,365.938 339.644,366.351C340.057,366.763 340.617,366.995 341.2,366.995L342.8,366.995C343.383,366.995 343.943,366.763 344.356,366.351C344.721,365.986 344.944,365.505 344.991,364.995L349.009,364.995C349.056,365.505 349.279,365.986 349.644,366.351C350.057,366.763 350.617,366.995 351.2,366.995L352.8,366.995C353.383,366.995 353.943,366.763 354.356,366.351C354.721,365.986 354.944,365.505 354.991,364.995L359.009,364.995C359.056,365.505 359.279,365.986 359.644,366.351C360.057,366.763 360.617,366.995 361.2,366.995L362.8,366.995C363.383,366.995 363.943,366.763 364.356,366.351C364.768,365.938 365,365.379 365,364.795L365,363.195C365,362.612 364.768,362.052 364.356,361.639C363.943,361.227 363.383,360.995 362.8,360.995L361.2,360.995C360.617,360.995 360.057,361.227 359.644,361.639C359.279,362.005 359.056,362.485 359.009,362.995L354.991,362.995C354.944,362.485 354.721,362.005 354.356,361.639C353.99,361.274 353.51,361.051 353,361.004L353,358.797C355.367,358.044 357.365,356.393 358.936,354.208C361.334,350.875 362.74,346.29 363.002,341.989C363.002,341.986 363.002,341.982 363.002,341.979C363.034,341.341 362.787,340.721 362.326,340.28C361.868,339.843 361.244,339.624 360.614,339.68C358.019,339.84 355.223,338.919 353.405,337.516C352.581,336.828 351.396,336.83 350.585,337.513C348.778,338.911 345.984,339.836 343.381,339.696C342.738,339.642 342.121,339.859 341.669,340.291C341.21,340.729 340.965,341.345 340.998,341.979C340.998,341.981 340.998,341.984 340.998,341.986C341.25,346.289 342.652,350.875 345.049,354.208C346.623,356.398 348.626,358.051 351,358.802L351,361.004ZM343,363.195L343,364.795C343,364.848 342.979,364.899 342.941,364.936C342.904,364.974 342.853,364.995 342.8,364.995L341.2,364.995C341.147,364.995 341.096,364.974 341.059,364.936C341.021,364.899 341,364.848 341,364.795L341,363.195C341,363.142 341.021,363.091 341.059,363.054C341.096,363.016 341.147,362.995 341.2,362.995L342.8,362.995C342.853,362.995 342.904,363.016 342.941,363.054C342.979,363.091 343,363.142 343,363.195ZM353,363.195L353,364.795C353,364.848 352.979,364.899 352.941,364.936C352.904,364.974 352.853,364.995 352.8,364.995L351.2,364.995C351.147,364.995 351.096,364.974 351.059,364.936C351.021,364.899 351,364.848 351,364.795L351,363.195C351,363.142 351.021,363.091 351.059,363.054C351.096,363.016 351.147,362.995 351.2,362.995L352.8,362.995C352.853,362.995 352.904,363.016 352.941,363.054C352.979,363.091 353,363.142 353,363.195ZM363,363.195L363,364.795C363,364.848 362.979,364.899 362.941,364.936C362.904,364.974 362.853,364.995 362.8,364.995L361.2,364.995C361.147,364.995 361.096,364.974 361.059,364.936C361.021,364.899 361,364.848 361,364.795L361,363.195C361,363.142 361.021,363.091 361.059,363.054C361.096,363.016 361.147,362.995 361.2,362.995L362.8,362.995C362.853,362.995 362.904,363.016 362.941,363.054C362.979,363.091 363,363.142 363,363.195ZM351.946,356.994C349.817,356.431 348.058,354.968 346.672,353.04C344.484,349.997 343.227,345.804 342.995,341.876C342.993,341.824 343.013,341.773 343.051,341.737C343.089,341.701 343.14,341.683 343.193,341.688C343.206,341.689 343.219,341.69 343.232,341.691C346.337,341.869 349.675,340.754 351.834,339.075C351.847,339.065 351.86,339.055 351.872,339.044C351.941,338.984 352.044,338.984 352.114,339.044C352.126,339.054 352.138,339.064 352.151,339.074C354.31,340.755 357.65,341.87 360.756,341.675C360.767,341.674 360.778,341.673 360.789,341.672C360.846,341.667 360.903,341.686 360.944,341.726C360.984,341.764 361.006,341.817 361.005,341.871C360.764,345.804 359.503,349.997 357.313,353.04C355.926,354.968 354.168,356.431 352.04,356.995C352.01,357.002 351.979,357.002 351.949,356.995L351.946,356.994Z"/></g></g></g><g id="SvgjsG4961" featureKey="anH1Ye-0" transform="matrix(5.807875340180572,0,0,5.807875340180572,124.19212465981943,-21.506678987959816)" fill="#000"><path d="M2.3984 17.9998 l0.30174 -0.43238 l7.7369 0 l0 0.43238 l-8.0387 0 z M1.9328 18.6676 l0.30176 -0.43238 l8.2024 0 l0 0.43238 l-8.5042 0 z M1.4673 19.33368 l0.30174 -0.43238 l8.6679 0 l0 0.43238 l-8.9696 0 z M1 19.99972656 l0.30174 -0.43054 l9.1353 0 l0 0.43055 l-9.437 0 z M10.104 12.100999999999999 l-2.9366 4.8004 l3.2696 0 l0 0.42318 l-3.5327 0 l-0.0036718 0.0055274 l-0.0091992 -0.0055274 l-4.0258 0 l0.30176 -0.43238 l0.0091992 0 l4.0148 -5.7516 c0.40846 -0.58326 0.28334 -1.38 -0.28336 -1.8123 c-0.2815 -0.21344 -0.62926 -0.30726 -0.98068 -0.25944 s-0.66238 0.22814 -0.87766 0.50964 c-0.40846 0.5354 -0.34406 1.2824 0.12145 1.7442 l-0.25024 0.35878 c-0.30726 -0.27784 -0.50414 -0.65132 -0.55934 -1.0653 c-0.062558 -0.46368 0.058868 -0.92548 0.34406 -1.299 c0.2852 -0.3735 0.69734 -0.6127 1.1629 -0.67526 s0.92732 0.058868 1.3008 0.34406 c0.75254 0.57406 0.9163 1.6302 0.37352 2.403 l-3.8418 5.5032 l0.32566 0 l3.7 -5.3854 c0.31096 -0.45078 0.43608 -0.99356 0.34408 -1.4885 c-0.093828 -0.5115 -0.37902 -0.96046 -0.8022 -1.264 c-0.8427 -0.6035 -2.0258 -0.45446 -2.6936 0.33672 c-0.35696 0.42318 -0.5207 0.9586 -0.45998 1.5087 c0.055196 0.50414 0.29254 0.95308 0.66604 1.2824 l-0.2484 0.3551 c-0.47654 -0.40296 -0.7783 -0.96228 -0.84638 -1.5897 c-0.07543 -0.6679 0.12328 -1.3192 0.5575 -1.8344 c0.8114 -0.96228 2.2502 -1.1426 3.275 -0.40846 c0.51518 0.36798 0.86294 0.91446 0.97702 1.5363 c0.11223 0.60716 -0.038652 1.2677 -0.41214 1.8123 l-3.5326 5.1408 l0.30176 0 l3.4296 -5.0874 c0.59796 -0.8887 0.6182 -2.0588 0.047832 -2.9126 c-0.16375 -0.2447 -0.36614 -0.45814 -0.60164 -0.63846 c-0.56854 -0.43422 -1.2714 -0.62006 -1.9816 -0.52438 s-1.3395 0.46184 -1.7719 1.0285 c-0.43422 0.5667 -0.62006 1.2695 -0.52438 1.9798 c0.090156 0.67342 0.42502 1.2695 0.94204 1.7001 l-0.2484 0.3551 c-0.61636 -0.50046 -1.0138 -1.2033 -1.1205 -1.9963 c-0.11039 -0.8243 0.10672 -1.6412 0.60902 -2.3 c0.50414 -0.6587 1.2346 -1.0837 2.0588 -1.1941 c0.82244 -0.11039 1.6412 0.10488 2.3 0.60902 c0.2723 0.20974 0.50782 0.45998 0.69732 0.74332 c0.6771 1.0138 0.65686 2.346 -0.049668 3.3946 l-3.2658 4.8464 l0.47838 0 l3.1996 -5.1002 c0.2392 -0.38272 0.37904 -0.80406 0.40112 -1.218 c0.068086 -1.2364 -0.54644 -2.4084 -1.6026 -3.0562 c-1.3799 -0.84636 -3.2198 -0.55934 -4.2796 0.66606 c-0.6127 0.71022 -0.8979 1.6118 -0.8022 2.5428 c0.093828 0.9034 0.53174 1.7056 1.2346 2.2704 l-0.2484 0.3551 c-0.79484 -0.62926 -1.31 -1.5658 -1.4149 -2.5796 c-0.10855 -1.0506 0.21344 -2.07 0.90526 -2.8702 c1.1978 -1.3836 3.275 -1.7056 4.8316 -0.7507 c1.1923 0.73228 1.8841 2.0534 1.8068 3.448 c-0.027598 0.48758 -0.18768 0.98068 -0.46734 1.4241 l-3.0562 4.8722 l0.30359 0 l3.0726 -5.0248 c0.21528 -0.35326 0.34592 -0.74518 0.38088 -1.1352 c0.12512 -1.4646 -0.5538 -2.8832 -1.7737 -3.702 c-1.6817 -1.1279 -3.9522 -0.82612 -5.2806 0.7047 c-0.73782 0.8519 -1.0819 1.9375 -0.9678 3.0562 c0.11039 1.0856 0.66422 2.0884 1.5179 2.76 l-0.2484 0.3551 c-0.95676 -0.74518 -1.5768 -1.8602 -1.7001 -3.0708 c-0.12695 -1.2383 0.2539 -2.4416 1.0727 -3.3836 c1.4701 -1.6946 3.9834 -2.0294 5.8472 -0.78012 c1.3505 0.90526 2.103 2.4766 1.9632 4.0976 c-0.040468 0.4563 -0.19318 0.91262 -0.44342 1.3229 z M17.778 5.5969999999999995 c2.8776 0 5.2198 2.3404 5.218 5.218 l0 3.9669 c0 2.8776 -2.3404 5.218 -5.218 5.218 s-5.218 -2.3404 -5.218 -5.218 l0 -3.9669 c0 -2.8776 2.3404 -5.218 5.218 -5.218 z M22.566000000000003 14.781600000000001 l0.0018555 0 l0 -3.9669 c0 -2.6402 -2.1472 -4.7876 -4.7876 -4.7876 s-4.7876 2.1472 -4.7876 4.7876 l0 3.9669 c0 2.6402 2.1454 4.7876 4.7856 4.7876 s4.7876 -2.1472 4.7876 -4.7876 z M17.778 6.244 c2.5206 0 4.5722 2.0516 4.5704 4.5704 l0 3.9669 c0 2.5206 -2.0516 4.5704 -4.5704 4.5704 s-4.5704 -2.0496 -4.5704 -4.5704 l0 -3.9669 c0 -2.5206 2.0496 -4.5704 4.5704 -4.5704 z M21.918 14.781600000000001 l-0.0018359 0 l0 -3.9669 c0 -2.2816 -1.8565 -4.138 -4.138 -4.138 s-4.138 1.8565 -4.138 4.138 l0 3.9669 c0 2.2816 1.8583 4.138 4.1398 4.138 s4.138 -1.8565 4.138 -4.138 z M17.778 6.894 c2.1638 0 3.9228 1.759 3.9228 3.9208 l0 3.9687 c0 2.1638 -1.759 3.9228 -3.9228 3.9228 s-3.9228 -1.7608 -3.9228 -3.9228 l0 -3.9669 c0 -2.1638 1.759 -3.9228 3.9228 -3.9228 z M21.2684 14.781600000000001 l0 -3.9669 c0 -1.9246 -1.5658 -3.4904 -3.4904 -3.4904 s-3.4904 1.5658 -3.4904 3.4904 l0 3.9669 c0 1.9246 1.5658 3.4904 3.4904 3.4904 s3.4904 -1.5658 3.4904 -3.4904 z M17.778 7.542 c1.8068 0 3.275 1.4683 3.275 3.2732 l0 3.9687 c0 1.8068 -1.4683 3.275 -3.275 3.275 s-3.275 -1.4701 -3.275 -3.275 l0 -3.9669 c0 -1.8068 1.4701 -3.275 3.275 -3.275 z M20.620800000000003 14.781600000000001 l0.0018555 0 l0 -3.9669 c0 -1.5676 -1.2751 -2.8426 -2.8426 -2.8426 s-2.8426 1.2751 -2.8426 2.8426 l0 3.9669 c0 1.5676 1.2732 2.8426 2.8408 2.8426 s2.8426 -1.2751 2.8426 -2.8426 z M17.778 8.189 c1.4499 0 2.6274 1.1776 2.6256 2.6256 l0 3.9669 c0 1.448 -1.1776 2.6256 -2.6256 2.6256 s-2.6256 -1.1776 -2.6256 -2.6256 l0 -3.9669 c0 -1.448 1.1776 -2.6256 2.6256 -2.6256 z M19.9732 14.781600000000001 l-0.0018555 -0.000019531 l0 -3.9669 c0 -1.2088 -0.98436 -2.1932 -2.1932 -2.1932 s-2.1932 0.98252 -2.1932 2.1932 l0 3.9669 c0 1.2107 0.9862 2.1932 2.195 2.1932 s2.1932 -0.98252 2.1932 -2.1932 z M30.218 5.5969999999999995 c2.8776 0 5.2198 2.3404 5.218 5.218 l0 3.9669 c0 2.8776 -2.3404 5.218 -5.218 5.218 s-5.218 -2.3404 -5.218 -5.218 l0 -3.9669 c0 -2.8776 2.3404 -5.218 5.218 -5.218 z M35.006 14.781600000000001 l0.0018555 0 l0 -3.9669 c0 -2.6402 -2.1472 -4.7876 -4.7876 -4.7876 s-4.7876 2.1472 -4.7876 4.7876 l0 3.9669 c0 2.6402 2.1454 4.7876 4.7856 4.7876 s4.7876 -2.1472 4.7876 -4.7876 z M30.218 6.244 c2.5206 0 4.5722 2.0516 4.5704 4.5704 l0 3.9669 c0 2.5206 -2.0516 4.5704 -4.5704 4.5704 s-4.5704 -2.0496 -4.5704 -4.5704 l0 -3.9669 c0 -2.5206 2.0496 -4.5704 4.5704 -4.5704 z M34.358000000000004 14.781600000000001 l-0.0018359 0 l0 -3.9669 c0 -2.2816 -1.8565 -4.138 -4.138 -4.138 s-4.138 1.8565 -4.138 4.138 l0 3.9669 c0 2.2816 1.8583 4.138 4.1398 4.138 s4.138 -1.8565 4.138 -4.138 z M30.218 6.894 c2.1638 0 3.9228 1.759 3.9228 3.9208 l0 3.9687 c0 2.1638 -1.759 3.9228 -3.9228 3.9228 s-3.9228 -1.7608 -3.9228 -3.9228 l0 -3.9669 c0 -2.1638 1.759 -3.9228 3.9228 -3.9228 z M33.7084 14.781600000000001 l0 -3.9669 c0 -1.9246 -1.5658 -3.4904 -3.4904 -3.4904 s-3.4904 1.5658 -3.4904 3.4904 l0 3.9669 c0 1.9246 1.5658 3.4904 3.4904 3.4904 s3.4904 -1.5658 3.4904 -3.4904 z M30.218 7.542 c1.8068 0 3.275 1.4683 3.275 3.2732 l0 3.9687 c0 1.8068 -1.4683 3.275 -3.275 3.275 s-3.275 -1.4701 -3.275 -3.275 l0 -3.9669 c0 -1.8068 1.4701 -3.275 3.275 -3.275 z M33.0608 14.781600000000001 l0.0018555 0 l0 -3.9669 c0 -1.5676 -1.2751 -2.8426 -2.8426 -2.8426 s-2.8426 1.2751 -2.8426 2.8426 l0 3.9669 c0 1.5676 1.2732 2.8426 2.8408 2.8426 s2.8426 -1.2751 2.8426 -2.8426 z M30.218 8.189 c1.4499 0 2.6274 1.1776 2.6256 2.6256 l0 3.9669 c0 1.448 -1.1776 2.6256 -2.6256 2.6256 s-2.6256 -1.1776 -2.6256 -2.6256 l0 -3.9669 c0 -1.448 1.1776 -2.6256 2.6256 -2.6256 z M32.4132 14.781600000000001 l-0.0018555 -0.000019531 l0 -3.9669 c0 -1.2088 -0.98436 -2.1932 -2.1932 -2.1932 s-2.1932 0.98252 -2.1932 2.1932 l0 3.9669 c0 1.2107 0.9862 2.1932 2.195 2.1932 s2.1932 -0.98252 2.1932 -2.1932 z"/></g><g id="SvgjsG4962" featureKey="XxVAgm-0" transform="matrix(0.4262892577445473,0,0,0.4262892577445473,149.8294840529775,102.5275222237734)" fill="#000"><path d="M12.46 20 l-1.28 -2.96 l-7.16 0 l-1.28 2.96 l-2.34 0 l6.24 -14 l1.92 0 l6.24 14 l-2.34 0 z M4.82 15.219999999999999 l5.56 0 l-2.78 -6.44 z M49.803999999999995 6 c3.14 0 5.06 1.92 5.06 4.62 s-1.92 4.5 -5.06 4.5 l-2.5 0 l0 4.88 l-2.2 0 l0 -14 l4.7 0 z M49.70399999999999 13.2 c1.78 0 2.96 -0.84 2.96 -2.58 s-1.18 -2.58 -2.96 -2.58 l-2.4 0 l0 5.16 l2.4 0 z M70.316 17.96 l5.94 0 l0 2.04 l-8.14 0 l0 -14 l2.2 0 l0 11.96 z M100.868 20 l-1.28 -2.96 l-7.16 0 l-1.28 2.96 l-2.34 0 l6.24 -14 l1.92 0 l6.24 14 l-2.34 0 z M93.22800000000001 15.219999999999999 l5.56 0 l-2.78 -6.44 z M127.80000000000001 18.5 c-1.26 1.1 -2.9 1.7 -4.72 1.7 c-3.76 0 -7.22 -2.96 -7.22 -7.2 s3.46 -7.2 7.22 -7.2 c1.8 0 3.42 0.6 4.66 1.66 l-1.34 1.52 c-0.88 -0.68 -2.02 -1.1 -3.18 -1.1 c-2.72 0 -5.08 2.12 -5.08 5.12 s2.36 5.12 5.08 5.12 c1.18 0 2.36 -0.44 3.24 -1.16 z M143.252 17.96 l6.34 0 l0 2.04 l-6.74 0 l-1.8 0 l0 -14 l2.2 0 l6.16 0 l0 2.04 l-6.16 0 l0 3.92 l4.74 0 l0 2 l-4.74 0 l0 4 z M189.796 14.68 l0 1.9 l-1.5 0 l0 3.42 l-2.2 0 l0 -3.42 l-6.1 0 l0 -1.9 l6.1 -8.68 l2.2 0 l0 8.68 l1.5 0 z M182.256 14.68 l3.84 0 l0 -5.68 z M228.92000000000002 8 l-6.26 0 l0 4.02 l5.16 0 l0 1.88 l-5.16 0 l0 6.1 l-2.26 0 l0 -14 l8.52 0 l0 2 z M252.77200000000002 20 l-2.36 0 l-3.3 -4.88 l-0.24 0 l-2.5 0 l0 4.88 l-2.2 0 l0 -14 l4.7 0 c3.14 0 5.06 1.92 5.06 4.62 c0 1.96 -1.02 3.46 -2.78 4.12 z M244.372 8.04 l0 5.16 l2.4 0 c1.78 0 2.96 -0.84 2.96 -2.58 s-1.18 -2.58 -2.96 -2.58 l-2.4 0 z M267.224 16.2 c0.62 1.34 1.74 2.1 3.1 2.1 c1.22 0 2.9 -0.68 2.9 -2.8 c0 -2.06 -1.84 -3.22 -4.48 -2.62 l3.06 -4.98 l-5.64 0 l0 -1.9 l8.82 0 l-3.36 5.34 c2.02 0.16 3.8 1.78 3.8 4.16 c0 2.96 -2.32 4.7 -5.12 4.7 c-2.34 0 -4.06 -1.28 -4.78 -3.02 z M290.07599999999996 16.2 c0.62 1.34 1.74 2.1 3.1 2.1 c1.22 0 2.9 -0.68 2.9 -2.8 c0 -2.06 -1.84 -3.22 -4.48 -2.62 l3.06 -4.98 l-5.64 0 l0 -1.9 l8.82 0 l-3.36 5.34 c2.02 0.16 3.8 1.78 3.8 4.16 c0 2.96 -2.32 4.7 -5.12 4.7 c-2.34 0 -4.06 -1.28 -4.78 -3.02 z M316.14799999999997 6 c4.04 0 7.08 3.1 7.08 6.96 c0 3.94 -3.04 7.04 -7.08 7.04 l-4.52 0 l0 -14 l4.52 0 z M316.12799999999993 17.92 c3.06 0 4.86 -2.22 4.86 -4.96 c0 -2.66 -1.8 -4.88 -4.86 -4.88 l-2.3 0 l0 9.84 l2.3 0 z M341.8999999999999 5.800000000000001 c3.14 0 5.62 2.52 5.62 7.2 c0 4.7 -2.48 7.2 -5.62 7.2 c-3.12 0 -5.62 -2.5 -5.62 -7.2 c0 -4.68 2.5 -7.2 5.62 -7.2 z M341.8999999999999 7.699999999999999 c-2.46 0 -3.52 2.48 -3.52 5.3 c0 2.84 1.06 5.3 3.52 5.3 s3.52 -2.46 3.52 -5.3 c0 -2.82 -1.06 -5.3 -3.52 -5.3 z M375.7319999999999 6 l0 14 l-2.26 0 l0 -9.06 l-4.2 9.06 l-1.86 0 l-4.18 -9.04 l0 9.04 l-2.26 0 l0 -14 l2.18 0 l5.2 11.02 l5.2 -11.02 l2.18 0 z"/></g>
			</g>
		</svg>
	