<svg version="1.2" xmlns="http://www.w3.org/2000/svg" viewBox="0 0 1116 1220" width="1116" height="1220">
	<title>Black logo - no background-svg</title>
	<style>
		.s0 { fill: #000000 } 
		.s1 { fill: #ffffff } 
	</style>
	<g id="Layer">
		<g id="SvgjsG4959">
			<path id="Layer" class="s0" d="m62.9 153.8c0-50.2 40.7-90.9 90.9-90.9h818.2c50.2 0 90.9 40.7 90.9 90.9v918.2c0 50.2-40.7 90.9-90.9 90.9h-818.2c-50.2 0-90.9-40.7-90.9-90.9z"/>
		</g>
		<g id="SvgjsG4960">
			<g id="Layer">
				<g id="Layer">
					<g id="Layer">
						<path id="Layer" class="s1" d="m492.1 547.8l52.8 52.7c5.2 5.3 12.6 7.9 20.1 7 7.4-0.8 14-5 17.9-11.3l87.9-140.6c7.2-11.5 3.7-26.6-7.8-33.8-11.4-7.1-26.5-3.6-33.7 7.8l-71.6 114.6-30.9-31c-9.6-9.6-25.1-9.6-34.7 0-9.5 9.5-9.5 25 0 34.6z"/>
					</g>
					<path id="Layer" fill-rule="evenodd" class="s1" d="m538.4 778.3c-58.1-18.3-107.1-58.8-145.6-112.4-58.7-81.6-93-193.8-99.2-299.1q0-0.1 0-0.2c-0.8-15.5 5.2-30.6 16.5-41.3 11-10.6 26.1-15.9 41.9-14.6 63.7 3.4 132-19.2 176.3-53.4 19.8-16.7 48.8-16.8 69 0 44.5 34.4 112.9 56.9 176.4 53 15.5-1.4 30.7 4 41.9 14.7 11.3 10.8 17.4 26 16.6 41.6q0 0.1 0 0.2c-6.4 105.3-40.8 217.5-99.5 299.1-38.5 53.5-87.4 93.9-145.3 112.3v54c12.5 1.2 24.2 6.6 33.2 15.6 8.9 8.9 14.4 20.7 15.5 33.2h98.4c1.1-12.5 6.6-24.3 15.5-33.2 10.1-10.1 23.8-15.8 38.1-15.8h39.1c14.3 0 28 5.7 38.1 15.8 10.1 10.1 15.8 23.8 15.8 38.1v39.1c0 14.3-5.7 28-15.8 38.1-10.1 10.1-23.8 15.8-38.1 15.8h-39.1c-14.3 0-28-5.7-38.1-15.8-8.9-8.9-14.4-20.7-15.5-33.2h-98.4c-1.1 12.5-6.6 24.3-15.5 33.2-10.1 10.1-23.8 15.8-38.1 15.8h-39.2c-14.2 0-27.9-5.7-38.1-15.8-8.9-8.9-14.3-20.7-15.5-33.2h-98.3c-1.2 12.5-6.6 24.3-15.6 33.2-10.1 10.1-23.8 15.8-38.1 15.8h-39.1c-14.3 0-28-5.7-38.1-15.8-10.1-10.1-15.8-23.8-15.8-38.1v-39.1c0-14.3 5.7-28 15.8-38.1 10.1-10.1 23.8-15.8 38.1-15.8h39.1c14.3 0 28 5.7 38.1 15.8 9 8.9 14.4 20.7 15.6 33.2h98.3c1.2-12.5 6.6-24.3 15.5-33.2 9-9 20.8-14.4 33.2-15.6zm-197.2 104.1c-0.9-0.9-2.2-1.4-3.5-1.4h-39.1c-1.3 0-2.6 0.5-3.5 1.4-0.9 0.9-1.4 2.2-1.4 3.4v39.2c0 1.3 0.5 2.6 1.4 3.5 0.9 0.9 2.2 1.4 3.5 1.4h39.1c1.3 0 2.6-0.5 3.5-1.4 0.9-0.9 1.4-2.2 1.4-3.5v-39.2c0-1.2-0.5-2.5-1.4-3.4zm244.7 0c-0.9-0.9-2.1-1.4-3.4-1.4h-39.2c-1.3 0-2.5 0.5-3.4 1.4-1 0.9-1.5 2.2-1.5 3.4v39.2c0 1.3 0.5 2.6 1.5 3.5 0.9 0.9 2.1 1.4 3.4 1.4h39.2c1.3 0 2.5-0.5 3.4-1.4 1-0.9 1.5-2.2 1.5-3.5v-39.2c0-1.2-0.5-2.5-1.5-3.4zm244.8 0c-0.9-0.9-2.2-1.4-3.5-1.4h-39.1c-1.3 0-2.6 0.5-3.5 1.4-0.9 0.9-1.4 2.2-1.4 3.4v39.2c0 1.3 0.5 2.6 1.4 3.5 0.9 0.9 2.2 1.4 3.5 1.4h39.1c1.3 0 2.6-0.5 3.5-1.4 0.9-0.9 1.4-2.2 1.4-3.5v-39.2c0-1.2-0.5-2.5-1.4-3.4zm-269-148.3q1.1 0.3 2.2 0c52.1-13.8 95.1-49.6 129-96.8 53.6-74.5 84.5-177.1 90.4-273.4 0-1.3-0.5-2.6-1.5-3.5-1-1-2.4-1.5-3.8-1.3q-0.4 0-0.8 0c-76 4.8-157.8-22.5-210.6-63.6q-0.5-0.4-0.9-0.8c-1.7-1.4-4.2-1.4-5.9 0q-0.5 0.4-1 0.8c-52.8 41.1-134.5 68.4-210.5 64q-0.5 0-0.9 0c-1.3-0.2-2.6 0.3-3.5 1.2-1 0.8-1.4 2.1-1.4 3.4 5.7 96.1 36.5 198.7 90 273.2 33.9 47.2 77 83 129.1 96.8z"/>
				</g>
			</g>
		</g>
		<g id="SvgjsG4961">
			<path id="Layer" fill-rule="evenodd" class="s0" d="m1318.6 817.8l15.9-22.9h408.5v22.9c0 0-424.4 0-424.4 0zm-24.6 35.2l15.9-22.8h433.1v22.8c0 0-449 0-449 0zm-24.6 35.2l15.9-22.8h457.7v22.8c0 0-473.6 0-473.6 0zm-24.7 35.2l16-22.8h482.3v22.8c0 0-498.3 0-498.3 0zm480.7-417.1l-155 253.5h172.6v22.3h-186.5l-0.2 0.3-0.5-0.3h-212.6l16-22.8h0.4l212-303.7c21.6-30.8 15-72.9-14.9-95.7-14.9-11.3-33.3-16.2-51.8-13.7-18.6 2.5-35 12.1-46.4 26.9-21.5 28.3-18.1 67.7 6.5 92.1l-13.3 19c-16.2-14.7-26.6-34.4-29.5-56.3-3.3-24.5 3.1-48.8 18.2-68.6 15-19.7 36.8-32.3 61.4-35.6 24.6-3.3 48.9 3.1 68.7 18.1 39.7 30.4 48.3 86.1 19.7 126.9l-202.9 290.6h17.2l195.4-284.4c16.4-23.8 23-52.4 18.2-78.6-5-27-20.1-50.7-42.4-66.7-44.5-31.9-107-24-142.2 17.8-18.9 22.3-27.5 50.6-24.3 79.6 2.9 26.7 15.4 50.4 35.2 67.8l-13.2 18.7c-25.1-21.3-41-50.8-44.6-83.9-4-35.3 6.5-69.7 29.4-96.9 42.8-50.8 118.8-60.3 172.9-21.6 27.2 19.5 45.6 48.3 51.6 81.2 5.9 32-2 66.9-21.8 95.7l-186.5 271.4h16l181-268.6c31.6-47 32.7-108.7 2.6-153.8-8.7-12.9-19.4-24.2-31.8-33.7-30-22.9-67.1-32.8-104.6-27.7-37.5 5-70.8 24.4-93.6 54.3-22.9 29.9-32.7 67-27.7 104.5 4.8 35.6 22.5 67.1 49.8 89.8l-13.2 18.7c-32.5-26.4-53.5-63.5-59.1-105.4-5.8-43.5 5.6-86.6 32.1-121.4 26.7-34.8 65.2-57.2 108.7-63 43.5-5.9 86.7 5.5 121.5 32.1 14.4 11.1 26.8 24.3 36.8 39.3 35.7 53.5 34.7 123.8-2.6 179.2l-172.5 255.9h25.3l168.9-269.3c12.7-20.2 20.1-42.5 21.2-64.3 3.6-65.3-28.8-127.2-84.6-161.4-72.9-44.7-170-29.5-226 35.2-32.3 37.5-47.4 85.1-42.3 134.2 4.9 47.7 28.1 90.1 65.2 119.9l-13.1 18.8c-42-33.3-69.2-82.7-74.7-136.2-5.8-55.5 11.2-109.3 47.7-151.6 63.3-73 173-90 255.2-39.6 62.9 38.6 99.4 108.4 95.3 182-1.4 25.8-9.9 51.8-24.6 75.2l-161.4 257.3h16l162.3-265.3c11.3-18.7 18.2-39.4 20.1-60 6.6-77.3-29.3-152.2-93.7-195.4-88.8-59.6-208.6-43.7-278.8 37.2-38.9 45-57.1 102.3-51.1 161.3 5.9 57.4 35.1 110.3 80.2 145.8l-13.2 18.7c-50.5-39.3-83.2-98.2-89.7-162.1-6.7-65.4 13.4-128.9 56.6-178.7 77.6-89.4 210.3-107.1 308.7-41.2 71.4 47.8 111.1 130.8 103.7 216.4-2.1 24.1-10.2 48.2-23.4 69.8zm405.2-343.4c151.9 0 275.6 123.6 275.5 275.5v209.5c0 151.9-123.6 275.5-275.5 275.5-151.9 0-275.5-123.6-275.5-275.5v-209.5c0-151.9 123.6-275.5 275.5-275.5zm252.8 484.9h0.1v-209.4c0-139.4-113.4-252.8-252.8-252.8-139.4 0-252.8 113.4-252.8 252.8v209.4c0 139.4 113.3 252.8 252.7 252.8 139.4 0 252.8-113.3 252.8-252.8zm-252.8-450.7c133.1 0 241.4 108.3 241.3 241.3v209.4c0 133.1-108.3 241.3-241.3 241.3-133 0-241.3-108.2-241.3-241.3v-209.4c0-133.1 108.2-241.3 241.3-241.3zm218.6 450.7h-0.1v-209.4c0-120.5-98-218.5-218.5-218.5-120.5 0-218.5 98-218.5 218.5v209.4c0 120.5 98.1 218.5 218.6 218.5 120.5 0 218.5-98 218.5-218.5zm-218.6-416.4c114.2 0 207.1 92.9 207.1 207v209.5c0 114.3-92.9 207.2-207.1 207.2-114.3 0-207.1-93-207.1-207.2v-209.4c0-114.2 92.8-207.1 207.1-207.1zm184.3 416.4v-209.4c0-101.6-82.7-184.3-184.3-184.3-101.6 0-184.3 82.7-184.3 184.3v209.4c0 101.7 82.7 184.3 184.3 184.3 101.6 0 184.3-82.6 184.3-184.3zm-184.3-382.2c95.4 0 172.9 77.5 172.9 172.8v209.6c0 95.4-77.5 172.9-172.9 172.9-95.4 0-172.9-77.6-172.9-172.9v-209.5c0-95.4 77.6-172.9 172.9-172.9zm150.1 382.2h0.1v-209.4c0-82.8-67.3-150.1-150.1-150.1-82.8 0-150.1 67.3-150.1 150.1v209.4c0 82.8 67.2 150.1 150 150.1 82.8 0 150.1-67.3 150.1-150.1zm-150.1-348c76.5 0 138.7 62.1 138.6 138.6v209.4c0 76.5-62.2 138.7-138.6 138.7-76.5 0-138.6-62.2-138.6-138.7v-209.4c0-76.5 62.1-138.6 138.6-138.6zm115.9 348h-0.1v-209.4c0-63.8-52-115.8-115.8-115.8-63.8 0-115.8 51.9-115.8 115.8v209.4c0 64 52.1 115.8 115.9 115.8 63.8 0 115.8-51.8 115.8-115.8zm540.9-484.9c151.9 0 275.6 123.6 275.5 275.5v209.5c0 151.9-123.6 275.5-275.5 275.5-151.9 0-275.5-123.6-275.5-275.5v-209.5c0-151.9 123.6-275.5 275.5-275.5zm252.8 484.9h0.1v-209.4c0-139.4-113.4-252.8-252.8-252.8-139.4 0-252.8 113.4-252.8 252.8v209.4c0 139.4 113.3 252.8 252.7 252.8 139.4 0 252.8-113.3 252.8-252.8zm-252.8-450.7c133.1 0 241.4 108.3 241.3 241.3v209.4c0 133.1-108.3 241.3-241.3 241.3-133 0-241.3-108.2-241.3-241.3v-209.4c0-133.1 108.2-241.3 241.3-241.3zm218.6 450.7h-0.1v-209.4c0-120.5-98-218.5-218.5-218.5-120.4 0-218.5 98-218.5 218.5v209.4c0 120.5 98.1 218.5 218.6 218.5 120.5 0 218.5-98 218.5-218.5zm-218.6-416.4c114.3 0 207.1 92.9 207.1 207v209.5c0 114.3-92.8 207.2-207.1 207.2-114.2 0-207.1-93-207.1-207.2v-209.4c0-114.2 92.9-207.1 207.1-207.1zm184.3 416.4v-209.4c0-101.6-82.7-184.3-184.3-184.3-101.6 0-184.3 82.7-184.3 184.3v209.4c0 101.7 82.7 184.3 184.3 184.3 101.6 0 184.3-82.6 184.3-184.3zm-184.3-382.2c95.4 0 172.9 77.5 172.9 172.8v209.6c0 95.4-77.5 172.9-172.9 172.9-95.4 0-172.9-77.6-172.9-172.9v-209.5c0-95.4 77.6-172.9 172.9-172.9zm150.1 382.2h0.1v-209.4c0-82.8-67.3-150.1-150.1-150.1-82.7 0-150.1 67.3-150.1 150.1v209.4c0 82.8 67.3 150.1 150 150.1 82.8 0 150.1-67.3 150.1-150.1zm-150.1-348c76.6 0 138.7 62.1 138.6 138.6v209.4c0 76.5-62.1 138.7-138.6 138.7-76.4 0-138.6-62.2-138.6-138.7v-209.4c0-76.5 62.2-138.6 138.6-138.6zm115.9 348h-0.1v-209.4c0-63.8-52-115.8-115.8-115.8-63.8 0-115.8 51.9-115.8 115.8v209.4c0 64 52.1 115.8 115.9 115.8 63.8 0 115.8-51.8 115.8-115.8z"/>
		</g>
		<g id="SvgjsG4962">
			<path id="Layer" fill-rule="evenodd" class="s0" d="m1473.3 1072.5l-5-11.5h-27.7l-5 11.5h-9.1l24.2-54.3h7.5l24.2 54.3zm-29.7-18.5h21.6l-10.8-25zm174.3-35.7c12.2 0 19.7 7.4 19.7 17.9 0 10.4-7.5 17.4-19.7 17.4h-9.6v18.9h-8.6v-54.2zm-0.4 27.9c6.9 0 11.5-3.3 11.5-10 0-6.8-4.6-10-11.5-10h-9.3v20zm79.9 18.4h23v7.9h-31.5v-54.2h8.5zm118.4 7.9l-4.9-11.5h-27.8l-4.9 11.5h-9.1l24.2-54.3h7.4l24.2 54.3zm-29.6-18.5h21.5l-10.7-25zm133.9 12.7c-4.8 4.3-11.2 6.6-18.3 6.6-14.5 0-27.9-11.5-27.9-27.9 0-16.4 13.4-27.9 27.9-27.9 7 0 13.3 2.3 18.1 6.4l-5.2 5.9c-3.4-2.6-7.8-4.2-12.3-4.2-10.6 0-19.7 8.2-19.7 19.8 0 11.6 9.1 19.8 19.7 19.8 4.6 0 9.1-1.7 12.5-4.5zm59.9-2.1h24.6v8h-33.1v-54.3h32.4v7.9h-23.9v15.2h18.4v7.7h-18.4zm180.4-12.7v7.4h-5.8v13.3h-8.5v-13.3h-23.7v-7.4l23.7-33.6h8.5v33.6zm-29.2 0h14.8v-22zm180.9-25.9h-24.3v15.6h20v7.3h-20v23.6h-8.7v-54.2h33zm92.4 46.5h-9.1l-12.8-18.9h-10.6v18.9h-8.6v-54.3h18.3c12.1 0 19.6 7.5 19.6 17.9 0 7.6-4 13.4-10.8 16zm-32.6-46.3v20h9.3c6.9 0 11.5-3.3 11.5-10 0-6.8-4.6-10-11.5-10zm88.6 31.6c2.4 5.2 6.7 8.1 12 8.1 4.7 0 11.3-2.6 11.3-10.8 0-8-7.2-12.5-17.4-10.2l11.8-19.3h-21.8v-7.4h34.2l-13 20.7c7.8 0.7 14.7 6.9 14.7 16.2 0 11.4-9 18.2-19.9 18.2-9 0-15.7-5-18.5-11.7zm88.6 0c2.4 5.2 6.7 8.1 12 8.1 4.7 0 11.2-2.6 11.2-10.8 0-8-7.1-12.5-17.3-10.2l11.8-19.3h-21.8v-7.4h34.1l-13 20.7c7.9 0.7 14.7 6.9 14.7 16.2 0 11.4-8.9 18.2-19.8 18.2-9.1 0-15.7-5-18.5-11.7zm101-39.6c15.7 0 27.5 12.1 27.5 27 0 15.3-11.8 27.3-27.5 27.3h-17.5v-54.3zm-0.1 46.2c11.9 0 18.9-8.6 18.9-19.2 0-10.3-7-18.9-18.9-18.9h-8.9v38.1zm99.9-46.9c12.2 0 21.8 9.7 21.8 27.9 0 18.2-9.6 27.9-21.8 27.9-12.1 0-21.8-9.7-21.8-27.9 0-18.2 9.7-27.9 21.8-27.9zm0 7.3c-9.5 0-13.7 9.6-13.7 20.6 0 11 4.2 20.5 13.7 20.5 9.5 0 13.6-9.5 13.6-20.5 0-11-4.1-20.6-13.6-20.6zm131.1-6.6v54.3h-8.8v-35.1l-16.2 35.1h-7.2l-16.2-35v35h-8.8v-54.3h8.4l20.2 42.8 20.2-42.8z"/>
		</g>
	</g>
</svg>